<svg xmlns="http://www.w3.org/2000/svg" viewBox="0 0 1024 1024">
  <defs>
    <linearGradient id="bio" x1="0" y1="0" x2="0" y2="1">
      <stop offset="0" stop-color="#e3ff6e"/><stop offset="1" stop-color="#cdf138"/>
    </linearGradient>
    <linearGradient id="chip" x1="0" y1="0" x2="0" y2="1">
      <stop offset="0" stop-color="#eceeef"/><stop offset="1" stop-color="#d2d6d8"/>
    </linearGradient>
    <!-- 七锚点全部落在 R395 引导圆上,弧半径 132/118 交替 = 有节奏的脑叶 -->
    <path id="halfShape" d="M 494 140
      A 112 112 0 0 0 285 177
      A 132 132 0 0 0 141 365
      A 165 165 0 0 0 141 635
      A 132 132 0 0 0 285 823
      A 112 112 0 0 0 494 860
      Z"/>
  </defs>
  <g transform="translate(512,512) scale(1.07) translate(-512,-500)">

  <!-- 左半:生物脑 -->
  <use href="#halfShape" fill="url(#bio)" stroke="#43474a" stroke-width="20" stroke-linejoin="round"/>
  <g fill="none" stroke="#43474a" stroke-width="16" stroke-linecap="round">
    <path d="M 230 255 C 285 195 375 200 396 268 C 410 312 368 340 336 320 C 316 308 320 280 338 275"/>
    <path d="M 420 170 C 448 158 476 168 480 198"/>
    <path d="M 150 430 C 205 392 275 406 290 460 C 300 498 264 520 240 502 C 226 490 230 470 246 466"/>
    <path d="M 348 420 C 383 400 421 412 428 448 C 433 477 408 491 390 475"/>
    <path d="M 175 620 C 225 590 282 602 292 650 C 299 682 270 696 252 678"/>
    <path d="M 280 760 C 325 735 378 745 388 788 C 394 818 367 830 351 814"/>
    <path d="M 420 680 C 452 662 484 674 488 708"/>
    <path d="M 430 500 L 458 500"/>
  </g>
  <circle cx="471" cy="500" r="17" fill="#43474a"/>

  <!-- 右半:电路脑(镜像轮廓) -->
  <g transform="translate(1024,0) scale(-1,1)">
    <use href="#halfShape" fill="url(#chip)" stroke="#43474a" stroke-width="20" stroke-linejoin="round"/>
  </g>
  <g fill="none" stroke="#43474a" stroke-width="16" stroke-linecap="round">
    <path d="M 574 240 L 574 430"/>
    <path d="M 645 185 L 645 280 L 720 280 L 720 345"/>
    <path d="M 790 250 L 790 455"/>
    <path d="M 856 430 L 856 580"/>
    <path d="M 700 560 L 700 680"/>
    <path d="M 576 500 L 645 500 L 645 558"/>
    <path d="M 600 760 L 678 760"/>
  </g>
  <circle cx="574" cy="460" r="21" fill="#43474a"/>
  <circle cx="720" cy="377" r="25" fill="none" stroke="#43474a" stroke-width="15"/>
  <circle cx="790" cy="487" r="23" fill="#d8ff4a" stroke="#43474a" stroke-width="12"/>
  <circle cx="856" cy="612" r="23" fill="none" stroke="#43474a" stroke-width="15"/>
  <circle cx="700" cy="708" r="20" fill="#43474a"/>
  <circle cx="710" cy="760" r="19" fill="#43474a"/>
  <rect x="735" y="195" width="34" height="34" rx="8" fill="#43474a"/>
  <rect x="810" y="665" width="30" height="30" rx="8" fill="#43474a"/>
  <circle cx="549" cy="500" r="21" fill="#d8ff4a" stroke="#43474a" stroke-width="10"/>
  </g>
</svg>
